<svg version="1" xmlns="http://www.w3.org/2000/svg" width="25.988" height="29.922" viewBox="0 0 25.988 29.922"><path d="M0 0h25.988v29.922l-12.994-4.81L0 29.92V0zm20.154 17.895c-.24 0-.51-.006-.8-.018-.294-.014-.51-.05-.646-.116-.225-.102-.39-.26-.5-.468-.107-.21-.162-.492-.162-.854 0-.394.018-1.21.055-2.457.036-1.243.055-2.317.055-3.225 0-.858-.146-1.556-.44-2.09-.293-.534-.687-.94-1.185-1.222-.522-.29-1.108-.48-1.76-.57-.648-.094-1.364-.14-2.142-.14-.562 0-1.172.067-1.83.198-.658.134-1.24.32-1.746.562-.513.233-.948.528-1.305.885s-.536.76-.536 1.21c0 .52.175.945.52 1.27.347.323.858.486 1.534.486.476 0 .827-.043 1.057-.132.23-.088.438-.212.622-.373.14-.12.242-.283.314-.486.072-.204.11-.374.11-.51 0-.307-.058-.622-.17-.952-.113-.33-.182-.573-.206-.734.145-.104.335-.207.572-.308.236-.1.532-.15.885-.15.394 0 .71.09.952.265.24.178.416.394.53.652.103.225.17.5.204.83.03.328.048.594.048.796v1.154c-.468.225-1.206.48-2.22.767-1.013.284-1.88.56-2.604.824-.378.144-.726.3-1.044.47-.316.17-.596.382-.838.64-.265.282-.47.605-.614.97-.146.366-.217.81-.217 1.333 0 .91.33 1.637.99 2.19.657.55 1.454.824 2.386.824.628 0 1.116-.043 1.466-.13.35-.09.715-.224 1.092-.397.29-.138.56-.303.814-.494.253-.194.517-.427.79-.7h.07c.17.546.485.965.95 1.26.465.292 1.19.437 2.176.437.536 0 1.045-.064 1.525-.192s.896-.27 1.25-.42v-.88zm-6.02-1.302c-.218.265-.47.487-.755.668-.287.184-.65.272-1.095.272-.42 0-.77-.14-1.057-.42-.287-.282-.43-.738-.43-1.363 0-.476.084-.89.254-1.24.17-.348.403-.637.7-.86.282-.22.645-.426 1.088-.623.442-.197.89-.37 1.342-.525l-.05 4.09z"/></svg>